<svg width="12" height="14" viewBox="0 0 12 14" fill="none" xmlns="http://www.w3.org/2000/svg">
<path d="M2.6665 5.68586C2.98078 5.66667 3.36823 5.66667 3.8665 5.66667H8.13317C8.63144 5.66667 9.01889 5.66667 9.33317 5.68586M2.6665 5.68586C2.27429 5.7098 1.99603 5.76364 1.75852 5.88465C1.3822 6.0764 1.07624 6.38236 0.884491 6.75869C0.666504 7.18651 0.666504 7.74656 0.666504 8.86667V9.8C0.666504 10.9201 0.666504 11.4802 0.884491 11.908C1.07624 12.2843 1.3822 12.5903 1.75852 12.782C2.18635 13 2.7464 13 3.8665 13H8.13317C9.25328 13 9.81333 13 10.2412 12.782C10.6175 12.5903 10.9234 12.2843 11.1152 11.908C11.3332 11.4802 11.3332 10.9201 11.3332 9.8V8.86667C11.3332 7.74656 11.3332 7.18651 11.1152 6.75869C10.9234 6.38236 10.6175 6.0764 10.2412 5.88465C10.0036 5.76364 9.72538 5.7098 9.33317 5.68586M2.6665 5.68586V4.33333C2.6665 2.49238 4.15889 1 5.99984 1C7.84079 1 9.33317 2.49238 9.33317 4.33333V5.68586" stroke="#9C9C9C" stroke-linecap="round" stroke-linejoin="round"/>
</svg>
